# xmcd CD database file
#
# Track frame offsets:
#	150
#	23249
#	44932
#	72335
#	102144
#	115011
#	146876
#	170364
#	194069
#	219251
#	234838
#	258144
#	278056
#	297524
#	315576
#
# Disc length: 4525 seconds
#
# Revision: 0
# Processed by: cddbd v1.5.2PL0 Copyright (c) Steve Scherf et al.
# Submitted via: CDex 1.70beta2
#
DISCID=e211ab0f
DTITLE=CJC - Creative JazzCreatif
DYEAR=1900
DGENRE=Jazz
TTITLE0=Yo'Mo'D - George Koufoglannakis - Edmonton AB
TTITLE1=Acting on the Assignment - TFC - Hal;ifax, NS
TTITLE2=Zig Zag - Colin Fisher - Stratfort. ON
TTITLE3=205 05 27 08.13.55 - Bitchin - Toronto, ON
TTITLE4=Imp.1st Mov.Mozart String Quintend, G minor k516 - Duane Andrews - St. John's, Nl&Lb
TTITLE5=Ghetto Drag - Avi Granite:6 - Toronto, ON
TTITLE6=Main Drag - Inhabitants - Vancouver, BC
TTITLE7=A travers - UniSecs - Montreal, PQ
TTITLE8=Tidal Wave - Gordon Grdina's Box Clutter - Vancouver, BC
TTITLE9=The Ruined Map - The Barriomatics - Rothesay, NB
TTITLE10=Walk'n'The Ave - The Beni.D Band - Winnipeg, MN
TTITLE11=Up v. Down - Sons of Colborne - Montreal, PQ
TTITLE12=Nootropics - Jesse Zubot - Vancouver, BC
TTITLE13=Errone - BoboK - Montreal, PQ
TTITLE14=Shadows of a Brighter Day - Tyler Hornby - Calgary, AB
EXTD=
EXTT0=
EXTT1=
EXTT2=
EXTT3=
EXTT4=
EXTT5=
EXTT6=
EXTT7=
EXTT8=
EXTT9=
EXTT10=
EXTT11=
EXTT12=
EXTT13=
EXTT14=
PLAYORDER=
